<svg xmlns="http://www.w3.org/2000/svg" width="310" height="40" viewBox="0 0 310 40"><g><g><path fill="#e5b748" d="M0 20.19a5.709 5.709 0 1 1 11.417 0A5.709 5.709 0 0 1 0 20.19zm298.28 0a5.709 5.709 0 1 1 11.417 0 5.709 5.709 0 0 1-11.418 0zm-228 19.267V.534h26.227v6.785H78.509v9.277H93.73v6.786H78.509v9.29h18.074v6.785zm53.208 0V7.32h-10.49V.534h29.114v6.785h-10.49v32.138zm89.808-15.3h9.883L218.39 9.43h-.304zm14.843 15.3l-2.889-8.875h-14.043l-2.889 8.875H199.5L212.934.534h10.606l13.415 38.923zm32.426-20.408h5.588c4.714 0 7.013-1.94 7.013-5.797 0-3.877-2.3-5.987-7.051-5.987h-5.55zm13.38 20.408l-7.372-13.798h-6.006v13.798h-8.23V7.262L243.682.534h24.013c8.837 0 13.95 4.98 13.95 12.715 0 5.32-2.452 9.18-6.88 11.08l8.267 15.128zM29.88 37.73a9.694 9.694 0 0 1-2.736-2.861 10.782 10.782 0 0 1-1.46-4.048l8.028-2.15c.116 2.958 1.904 4.723 4.781 4.723a4.313 4.313 0 0 0 3.497-1.456 6.604 6.604 0 0 0 1.233-4.265V7.31H30.997L22.434.531h28.93v27.142a11.838 11.838 0 0 1-3.693 8.991c-2.378 2.177-5.695 3.328-9.593 3.328a14.31 14.31 0 0 1-8.198-2.262zm137.044.92a13.113 13.113 0 0 1-5.011-3.896 17.671 17.671 0 0 1-3.056-6.28 31.917 31.917 0 0 1-1.033-8.48 31.525 31.525 0 0 1 1.052-8.496c.6-2.278 1.65-4.413 3.087-6.28a13.207 13.207 0 0 1 5.016-3.883 16.77 16.77 0 0 1 6.837-1.333c6.955 0 12.174 3.069 14.694 8.641l-7.127 4.115c-.983-3.583-3.534-5.477-7.376-5.477-2.913 0-4.935 1.087-6.179 3.32-1.131 2.034-1.659 5.02-1.659 9.394 0 4.443.532 7.455 1.674 9.48 1.228 2.176 3.225 3.235 6.106 3.235 4.196 0 6.856-2.213 7.694-6.4l7.243 4.181a14.899 14.899 0 0 1-5.372 6.741 18.423 18.423 0 0 1-16.588 1.419z"></path></g></g></svg>